<svg width="48" height="48" viewBox="0 0 48 48" fill="none" xmlns="http://www.w3.org/2000/svg">
<path d="M10.0184 37.9815L13.3473 41.31C13.7285 41.6912 14.3459 41.6912 14.7272 41.31L18.056 37.9815L21.3845 41.31C21.7657 41.6912 22.3835 41.6912 22.7644 41.31L26.0932 37.9815L29.4221 41.31C29.8029 41.6912 30.4207 41.6912 30.8016 41.31L34.1304 37.9815L37.1498 41.0005C37.5183 41.3693 38.1489 41.1082 38.1489 40.5867V1.97558C38.1489 1.43689 37.7123 1 37.1733 1H6.97558C6.43689 1 6 1.43689 6 1.97558V40.5867C6 41.1082 6.63061 41.3697 6.99939 41.0005L10.0184 37.9815Z" fill="#DDF5FF"/>
<rect x="11" y="9" width="15" height="2" rx="1" fill="#1B283F"/>
<rect x="28" y="9" width="6" height="2" rx="1" fill="#1B283F"/>
<rect x="11" y="15" width="20" height="2" rx="1" fill="#1B283F"/>
<rect x="11" y="21" width="15" height="2" rx="1" fill="#1B283F"/>
<circle cx="35" cy="36" r="11" fill="#FD4755" stroke="#1A1E2C" stroke-width="2"/>
<path d="M38.8602 38.381L36.9157 36.4365C36.6746 36.1955 36.6746 35.8046 36.9157 35.5636L38.8602 33.6191C39.2687 33.2106 39.2687 32.5483 38.8602 32.1398C38.4516 31.7312 37.7894 31.7312 37.3809 32.1398L35.4364 34.0842C35.1954 34.3253 34.8046 34.3253 34.5635 34.0842L32.619 32.1397C32.2105 31.7312 31.5482 31.7312 31.1397 32.1397C30.7312 32.5482 30.7312 33.2105 31.1397 33.619L33.0842 35.5635C33.3253 35.8046 33.3253 36.1954 33.0842 36.4364L31.1397 38.3809C30.7312 38.7895 30.7312 39.4517 31.1397 39.8602C31.5482 40.2688 32.2105 40.2688 32.619 39.8602L34.5635 37.9157C34.8046 37.6747 35.1954 37.6747 35.4364 37.9157L37.3809 39.8602C37.7895 40.2688 38.4517 40.2688 38.8602 39.8602C39.2687 39.4518 39.2687 38.7895 38.8602 38.381Z" fill="white"/>
</svg>
