<svg width="48" height="48" viewBox="0 0 48 48" fill="none" xmlns="http://www.w3.org/2000/svg">
<path d="M38.9062 0H8.90625C8.12962 0 7.5 0.629625 7.5 1.40625V46.5915C7.5 47.696 8.71491 48.3694 9.65156 47.784L23.9062 38.8748L38.1609 47.784C39.0976 48.3694 40.3125 47.6961 40.3125 46.5915V1.40625C40.3125 0.629625 39.6829 0 38.9062 0Z" fill="url(#paint0_linear_1_1042)"/>
<path d="M28.4665 29.0125L23.9062 26.6151L19.3459 29.0126C18.3143 29.5551 17.1085 28.679 17.3055 27.5303L18.1765 22.4522L14.4871 18.8559C13.6525 18.0424 14.1131 16.6249 15.2665 16.4573L20.365 15.7165L22.6451 11.0964C23.1609 10.0512 24.6513 10.0512 25.1671 11.0964L27.4472 15.7165L32.5457 16.4573C33.6991 16.625 34.1597 18.0424 33.3251 18.8559L29.6357 22.4521L30.5067 27.5302C30.7039 28.679 29.4981 29.555 28.4665 29.0125Z" fill="url(#paint1_linear_1_1042)"/>
<defs>
<linearGradient id="paint0_linear_1_1042" x1="7.5" y1="0" x2="43.1881" y2="2.24285" gradientUnits="userSpaceOnUse">
<stop stop-color="#26BFE1"/>
<stop offset="1" stop-color="#2687E1"/>
</linearGradient>
<linearGradient id="paint1_linear_1_1042" x1="23.9062" y1="29.1773" x2="23.9062" y2="10.3125" gradientUnits="userSpaceOnUse">
<stop stop-color="#C3FFE8"/>
<stop offset="0.9973" stop-color="#F0FFF4"/>
</linearGradient>
</defs>
</svg>
