<svg width="48" height="48" viewBox="0 0 48 48" fill="none" xmlns="http://www.w3.org/2000/svg">
<path d="M39.4632 6.63222L33.4055 4.10819C33.2341 4.03675 33.0503 4 32.8646 4H30.0521C29.2754 4 28.6458 4.62962 28.6458 5.40625V6.34375C28.6458 8.67372 26.757 10.5625 24.4271 10.5625C22.0971 10.5625 20.2083 8.67372 20.2083 6.34375V5.40625C20.2083 4.62962 19.5787 4 18.8021 4H15.9896C15.8039 4 15.6201 4.03675 15.4487 4.10819L9.39097 6.63222C5.71109 8.1655 3.33331 11.7322 3.33331 15.7188V21.3438C3.33331 22.1204 3.96294 22.75 4.73956 22.75H10.8333V43.0938C10.8333 43.8704 11.4629 44.5 12.2396 44.5H36.6146C37.3912 44.5 38.0208 43.8704 38.0208 43.0938V22.75H44.1146C44.8912 22.75 45.5208 22.1204 45.5208 21.3438V15.7188C45.5208 11.7322 43.143 8.1655 39.4632 6.63222Z" fill="url(#paint0_linear_1_1022)"/>
<path d="M40.8333 22.75H38.0208V17.5938C38.0208 16.8171 38.6504 16.1875 39.4271 16.1875C40.2037 16.1875 40.8333 16.8171 40.8333 17.5938V22.75ZM10.8333 17.5938C10.8333 16.8171 10.2037 16.1875 9.42706 16.1875C8.65044 16.1875 8.02081 16.8171 8.02081 17.5938V22.75H10.8333V17.5938ZM22.0833 21.3438C22.0833 20.5671 21.4537 19.9375 20.6771 19.9375H16.9271C16.1504 19.9375 15.5208 20.5671 15.5208 21.3438C15.5208 22.1204 16.1504 22.75 16.9271 22.75H20.6771C21.4537 22.75 22.0833 22.1204 22.0833 21.3438Z" fill="url(#paint1_linear_1_1022)"/>
<path d="M38.8727 28.7356C36.0409 28.7356 33.7373 31.048 31.5506 33.55C29.3638 31.048 27.0602 28.7356 24.2284 28.7356C20.666 28.7356 17.7678 31.6339 17.7678 35.1963C17.7678 38.7587 20.666 41.657 24.2284 41.657C27.0602 41.657 29.3638 39.3445 31.5506 36.8426C33.7373 39.3445 36.0409 41.657 38.8727 41.657C42.4351 41.657 45.3333 38.7587 45.3333 35.1963C45.3333 31.6339 42.4351 28.7356 38.8727 28.7356ZM24.2284 39.5034C21.8535 39.5034 19.9213 37.5712 19.9213 35.1963C19.9213 32.8213 21.8535 30.8892 24.2284 30.8892C26.2174 30.8892 28.1999 32.9747 30.1284 35.1963C28.1999 37.4178 26.2174 39.5034 24.2284 39.5034ZM38.8727 39.5034C36.8837 39.5034 34.9012 37.4178 32.9727 35.1963C34.9012 32.9747 36.8837 30.8892 38.8727 30.8892C41.2476 30.8892 43.1798 32.8213 43.1798 35.1963C43.1798 37.5712 41.2476 39.5034 38.8727 39.5034Z" fill="white"/>
<defs>
<linearGradient id="paint0_linear_1_1022" x1="3.33331" y1="4" x2="48.9807" y2="8.37142" gradientUnits="userSpaceOnUse">
<stop stop-color="#26BFE1"/>
<stop offset="1" stop-color="#2687E1"/>
</linearGradient>
<linearGradient id="paint1_linear_1_1022" x1="24.4272" y1="22.75" x2="24.4272" y2="16.1875" gradientUnits="userSpaceOnUse">
<stop stop-color="#C3FFE8"/>
<stop offset="0.9973" stop-color="#F0FFF4"/>
</linearGradient>
</defs>
</svg>
