<svg width="48" height="48" viewBox="0 0 48 48" fill="none" xmlns="http://www.w3.org/2000/svg">
<path opacity="0.3" d="M44.9006 31.6976L11.8886 37.5186C9.84893 37.8782 7.904 36.5163 7.54437 34.4767L3.91062 13.8689C3.551 11.8293 4.9129 9.88434 6.95243 9.52471L39.9644 3.70377C42.0041 3.34415 43.949 4.70605 44.3086 6.74559L47.9424 27.3534C48.3021 29.393 46.9402 31.338 44.9006 31.6976Z" fill="#267FE1"/>
<path d="M36.5625 44.3539H3.75C1.67897 44.3539 0 42.6749 0 40.6039V20.1928C0 18.1218 1.67897 16.4428 3.75 16.4428H36.5625C38.6335 16.4428 40.3125 18.1218 40.3125 20.1928V40.6039C40.3125 42.6749 38.6335 44.3539 36.5625 44.3539Z" fill="#267FE1"/>
<path d="M0 22.8225H40.3125V29.2022H0V22.8225Z" fill="white"/>
<path d="M11.1644 38.1628H4.78473C4.0081 38.1628 3.37848 38.7925 3.37848 39.5691C3.37848 40.3457 4.0081 40.9753 4.78473 40.9753H11.1644C11.941 40.9753 12.5707 40.3457 12.5707 39.5691C12.5707 38.7925 11.941 38.1628 11.1644 38.1628Z" fill="#EAF6FF"/>
</svg>
