<svg width="48" height="48" viewBox="0 0 48 48" fill="none" xmlns="http://www.w3.org/2000/svg">
<g clip-path="url(#clip0_1_1031)">
<path d="M9.46866 6.01857L10.0559 8.6025L7.47187 8.01535C6.9375 8.29669 6.31866 8.43732 5.67188 8.43732C3.33741 8.43732 1.45312 6.55285 1.45312 4.21857C1.45312 1.8841 3.33741 -0.000183105 5.67188 -0.000183105C8.00634 -0.000183105 9.89062 1.8841 9.89062 4.21857C9.89062 4.86535 9.75 5.48419 9.46866 6.01857Z" fill="url(#paint0_linear_1_1031)"/>
<path d="M39.9376 3.89054C39.4032 3.32804 38.5032 3.32804 37.9688 3.89054L34.003 7.85626C33.4406 8.39063 33.4406 9.29045 34.003 9.82491C34.5374 10.3874 35.4374 10.3874 35.9718 9.82491L38.9249 6.90001C42.047 10.4719 43.7344 15 43.7344 19.7813C43.7344 30.6375 34.9031 39.4688 24.0469 39.4688C19.2656 39.4688 14.7375 37.7812 11.1655 34.6593L14.0906 31.7062C14.653 31.1718 14.653 30.2718 14.0906 29.7374C13.5563 29.1749 12.6563 29.1749 12.1219 29.7374L8.15616 33.7031C7.59375 34.2375 7.59375 35.1373 8.15616 35.6718C12.4031 39.9468 18.0562 42.2813 24.0469 42.2813L25.3844 43.7437L26.8594 42.1125C37.9406 40.7063 46.5469 31.2281 46.5469 19.7813C46.5469 13.7906 44.2124 8.13751 39.9376 3.89054ZM32.4844 8.53126L22.5562 2.99054C13.9499 3.72179 7.17188 10.9781 7.17188 19.7813C7.17188 20.3718 7.2 20.9624 7.25634 21.525L32.4844 21.1875V8.53126ZM17.0156 32.4375L21.5438 36.4594C22.3595 36.6 23.2032 36.6563 24.0469 36.6563C31.95 36.6563 38.5874 31.2 40.4156 23.8594C40.1343 23.9437 31.0781 22.5938 31.0781 22.5938L17.0156 32.4375ZM36.7031 45.1875H26.8594L25.4531 43.7813L24.0469 45.1875H14.2031C13.4155 45.1875 12.7969 45.8062 12.7969 46.5938C12.7969 47.3812 13.4155 48 14.2031 48H36.7031C37.4907 48 38.1094 47.3812 38.1094 46.5938C38.1094 45.8062 37.4907 45.1875 36.7031 45.1875Z" fill="url(#paint1_linear_1_1031)"/>
<path d="M24.0469 2.90625C23.5406 2.90625 23.0344 2.93438 22.5562 2.99053C20.8969 4.25616 19.8281 6.28125 19.8281 8.53125C19.8281 10.8655 21.7124 12.75 24.0469 12.75H28.2656C29.8125 12.75 31.0781 14.0156 31.0781 15.5625C31.0781 17.1094 29.8125 18.375 28.2656 18.375H19.8281C19.8281 19.9219 18.5625 21.1875 17.0156 21.1875H8.57813C8.1001 21.1875 7.64991 21.2999 7.25635 21.525C8.04375 29.203 13.978 35.3343 21.5438 36.4594C20.475 35.4469 19.8281 34.0125 19.8281 32.4375C19.8281 30.8906 21.0938 29.625 22.6406 29.625H28.2656V26.8125C28.2656 25.2656 29.5313 24 31.0781 24H39.5156C39.825 24 40.1343 23.9437 40.4156 23.8594C40.7531 22.5655 40.9219 21.1875 40.9219 19.7812C40.9219 10.4719 33.3563 2.90625 24.0469 2.90625ZM16.5937 15.1405C17.1562 14.6062 17.1562 13.7062 16.5937 13.1718L9.46866 6.01884C9.0751 6.89062 8.34375 7.62178 7.47188 8.01553L14.625 15.1405C15.1312 15.7033 16.0879 15.703 16.5937 15.1405ZM24.0469 45.1875H26.8594V42.1125C25.9312 42.2249 25.0032 42.2812 24.0469 42.2812V45.1875Z" fill="#267FE1"/>
<path d="M24.0469 2.90625C23.5406 2.90625 23.0344 2.93438 22.5562 2.99053C20.8969 4.25616 19.8281 6.28125 19.8281 8.53125C19.8281 10.8655 21.7124 12.75 24.0469 12.75H28.2656C29.8125 12.75 31.0781 14.0156 31.0781 15.5625C31.0781 17.1094 29.8125 18.375 28.2656 18.375H19.8281C19.8281 19.9219 18.5625 21.1875 17.0156 21.1875H8.57813C8.1001 21.1875 7.64991 21.2999 7.25635 21.525C8.04375 29.203 13.978 35.3343 21.5438 36.4594C20.475 35.4469 19.8281 34.0125 19.8281 32.4375C19.8281 30.8906 21.0938 29.625 22.6406 29.625H28.2656V26.8125C28.2656 25.2656 29.5313 24 31.0781 24H39.5156C39.825 24 40.1343 23.9437 40.4156 23.8594C40.7531 22.5655 40.9219 21.1875 40.9219 19.7812C40.9219 10.4719 33.3563 2.90625 24.0469 2.90625ZM16.5937 15.1405C17.1562 14.6062 17.1562 13.7062 16.5937 13.1718L9.46866 6.01884C9.0751 6.89062 8.34375 7.62178 7.47188 8.01553L14.625 15.1405C15.1312 15.7033 16.0879 15.703 16.5937 15.1405ZM24.0469 45.1875H26.8594V42.1125C25.9312 42.2249 25.0032 42.2812 24.0469 42.2812V45.1875Z" fill="black" fill-opacity="0.2"/>
</g>
<defs>
<linearGradient id="paint0_linear_1_1031" x1="5.75456" y1="8.60248" x2="5.75456" y2="-0.000193873" gradientUnits="userSpaceOnUse">
<stop stop-color="#C3FFE8"/>
<stop offset="0.9973" stop-color="#F0FFF4"/>
</linearGradient>
<linearGradient id="paint1_linear_1_1031" x1="7.17187" y1="2.99054" x2="49.8905" y2="6.42622" gradientUnits="userSpaceOnUse">
<stop stop-color="#26BFE1"/>
<stop offset="1" stop-color="#2687E1"/>
</linearGradient>
<clipPath id="clip0_1_1031">
<rect width="48" height="48" fill="white"/>
</clipPath>
</defs>
</svg>
