<svg width="40" height="36" viewBox="0 0 40 36" fill="none" xmlns="http://www.w3.org/2000/svg">
<path d="M28.536 3.35286H22.3891C21.4517 3.35286 20.7127 2.59576 20.7127 1.67643C20.7127 0.739072 21.4698 0 22.3891 0H28.536C29.4734 0 30.2124 0.757098 30.2124 1.67643C30.2305 2.59576 29.4734 3.35286 28.536 3.35286Z" fill="#F6000B"/>
<path d="M17.6105 3.35286H15.4654C14.5281 3.35286 13.789 2.59576 13.789 1.67643C13.789 0.739072 14.5461 0 15.4654 0H17.6105C18.5479 0 19.287 0.757098 19.287 1.67643C19.287 2.59576 18.5299 3.35286 17.6105 3.35286Z" fill="#F6000B"/>
<path d="M5.20901 10.7616H3.82099C2.88364 10.7616 2.14457 10.0045 2.14457 9.0852C2.14457 8.14784 2.90166 7.40877 3.82099 7.40877H5.20901C6.14637 7.40877 6.88544 8.16586 6.88544 9.0852C6.88544 10.0226 6.12834 10.7616 5.20901 10.7616Z" fill="#009B00"/>
<path d="M4.12693 16.3856H1.71143C0.774067 16.3856 0.0349979 15.6285 0.0349979 14.7092C0.0349979 13.7719 0.792093 13.0328 1.71143 13.0328H4.12693C5.06429 13.0328 5.80336 13.7899 5.80336 14.7092C5.80336 15.6285 5.04627 16.3856 4.12693 16.3856Z" fill="#EAC300"/>
<path d="M17.6109 8.41814H11.9326C10.9953 8.41814 10.2562 7.66104 10.2562 6.7417C10.2562 5.80434 11.0133 5.06528 11.9326 5.06528H17.6109C18.5482 5.06528 19.2873 5.82237 19.2873 6.7417C19.2873 7.66104 18.5302 8.41814 17.6109 8.41814Z" fill="white"/>
<path d="M17.6114 13.6998H9.58974C8.65238 13.6998 7.91331 12.9427 7.91331 12.0234C7.91331 11.0861 8.67041 10.347 9.58974 10.347H17.5933C18.5307 10.347 19.2698 11.1041 19.2698 12.0234C19.2878 12.9427 18.5307 13.6998 17.6114 13.6998Z" fill="#0E41E8"/>
<path d="M17.6117 19.27H8.58065C7.64329 19.27 6.90422 18.5129 6.90422 17.5936C6.90422 16.6562 7.66132 15.9172 8.58065 15.9172H17.6117C18.5491 15.9172 19.2882 16.6743 19.2882 17.5936C19.2882 18.5129 18.5311 19.27 17.6117 19.27Z" fill="#F6000B"/>
<path d="M34.9894 8.41814H22.3891C21.4517 8.41814 20.7127 7.66104 20.7127 6.7417C20.7127 5.80434 21.4698 5.06528 22.3891 5.06528H34.9894C35.9267 5.06528 36.6658 5.82237 36.6658 6.7417C36.6838 7.66104 35.9267 8.41814 34.9894 8.41814Z" fill="#EB9600"/>
<path d="M37.4224 13.6998H22.4066C21.4692 13.6998 20.7302 12.9427 20.7302 12.0234C20.7302 11.0861 21.4873 10.347 22.4066 10.347H37.4224C38.3597 10.347 39.0988 11.1041 39.0988 12.0234C39.0988 12.9427 38.3417 13.6998 37.4224 13.6998Z" fill="#F6000B"/>
<path d="M38.3237 19.27H22.4066C21.4692 19.27 20.7302 18.5129 20.7302 17.5936C20.7302 16.6562 21.4873 15.9172 22.4066 15.9172H38.3237C39.261 15.9172 40.0001 16.6743 40.0001 17.5936C40.0001 18.5129 39.261 19.27 38.3237 19.27Z" fill="#009B00"/>
<path d="M7.91323 5.35383C8.82914 5.35383 9.57163 4.61134 9.57163 3.69543C9.57163 2.77952 8.82914 2.03702 7.91323 2.03702C6.99732 2.03702 6.25482 2.77952 6.25482 3.69543C6.25482 4.61134 6.99732 5.35383 7.91323 5.35383Z" fill="#0E41E8"/>
<path d="M28.5166 31.8161H22.3697C21.4323 31.8161 20.6932 32.5732 20.6932 33.4925C20.6932 34.4299 21.4503 35.169 22.3697 35.169H28.5166C29.4539 35.169 30.193 34.4119 30.193 33.4925C30.193 32.5552 29.4359 31.8161 28.5166 31.8161Z" fill="white"/>
<path d="M17.5755 31.8161H15.4304C14.4931 31.8161 13.754 32.5732 13.754 33.4925C13.754 34.4299 14.5111 35.169 15.4304 35.169H17.5755C18.5129 35.169 19.252 34.4119 19.252 33.4925C19.252 32.5552 18.4949 31.8161 17.5755 31.8161Z" fill="#F6000B"/>
<path d="M5.17401 24.3893H3.786C2.84864 24.3893 2.10957 25.1464 2.10957 26.0658C2.10957 27.0031 2.86667 27.7422 3.786 27.7422H5.17401C6.11137 27.7422 6.85044 26.9851 6.85044 26.0658C6.85044 25.1464 6.09335 24.3893 5.17401 24.3893Z" fill="white"/>
<path d="M4.09194 18.7833H1.67643C0.739075 18.7833 0 19.5404 0 20.4597C0 21.3971 0.757101 22.1362 1.67643 22.1362H4.09194C5.02929 22.1362 5.76836 21.3791 5.76836 20.4597C5.76836 19.5404 5.01127 18.7833 4.09194 18.7833Z" fill="#3BDBFC"/>
<path d="M17.5739 26.7508H11.8957C10.9583 26.7508 10.2193 27.5079 10.2193 28.4273C10.2193 29.3646 10.9764 30.1037 11.8957 30.1037H17.5739C18.5113 30.1037 19.2504 29.3466 19.2504 28.4273C19.2504 27.5079 18.4933 26.7508 17.5739 26.7508Z" fill="#009B00"/>
<path d="M17.5739 21.4691H9.5703C8.63294 21.4691 7.89387 22.2262 7.89387 23.1455C7.89387 24.0829 8.65097 24.822 9.5703 24.822H17.5739C18.5113 24.822 19.2503 24.0649 19.2503 23.1455C19.2503 22.2082 18.4932 21.4691 17.5739 21.4691Z" fill="white"/>
<path d="M34.9699 26.7508H22.3697C21.4323 26.7508 20.6932 27.5079 20.6932 28.4273C20.6932 29.3646 21.4503 30.1037 22.3697 30.1037H34.9699C35.9073 30.1037 36.6463 29.3466 36.6463 28.4273C36.6463 27.5079 35.8893 26.7508 34.9699 26.7508Z" fill="#0E41E8"/>
<path d="M37.3854 21.4691H22.3697C21.4323 21.4691 20.6932 22.2262 20.6932 23.1455C20.6932 24.0829 21.4503 24.822 22.3697 24.822H37.3854C38.3228 24.822 39.0619 24.0649 39.0619 23.1455C39.0619 22.2082 38.3048 21.4691 37.3854 21.4691Z" fill="#EAC300"/>
<path d="M7.87629 33.114C8.7922 33.114 9.5347 32.3715 9.5347 31.4556C9.5347 30.5397 8.7922 29.7972 7.87629 29.7972C6.96038 29.7972 6.21788 30.5397 6.21788 31.4556C6.21788 32.3715 6.96038 33.114 7.87629 33.114Z" fill="#3BDBFC"/>
</svg>
